<svg id="Livello_1" data-name="Livello 1" xmlns="http://www.w3.org/2000/svg" viewBox="0 0 530 518.11"><defs><style>.cls-1{fill:#fff;}</style></defs><rect y="6.11" width="512" height="512"/><rect class="cls-1" x="56" y="206" width="400" height="100" transform="translate(-106.04 262.11) rotate(-45)"/><rect class="cls-1" x="206" y="56" width="100" height="400" transform="translate(-106.04 262.11) rotate(-45)"/><rect class="cls-1" width="530" height="518.11"/><path d="M356.18,346.6c-39.52-1.65-77.1-16.22-107.94-46.15-3.33-3.23-5.57-4.16-10.31-2.22-26.86,11-54.63,16-83.43,8.62-21.93-5.64-38.52-17.63-45-40.07-3.62-12.62-2.08-25.07,2.31-37.21,10.57-29.21,31.47-49.77,58.13-65.27,23-13.4,47.62-22.52,74.77-23.16,14.65-.35,29.1,1.45,42.69,7.28,15.09,6.48,26.6,16.59,32,32.18,1.37,4,4.15,4.29,7.39,5,33.42,7.07,63.28,20.87,86.88,45.62,12.45,13.06,22.11,27.92,25,46.06,3.88,24.35-6.25,44.94-28.09,57.26C394.92,343.39,377.68,346.26,356.18,346.6ZM253.49,198.46c-24,10.58-34.61,36.83-26,62.08,7.29,21.37,21.63,37.68,40,50.53,35.24,24.69,74.06,36.67,117.63,28.35,17.17-3.27,32.19-11,42.1-25.83,8.88-13.28,10-27.62,4.83-42.57-3.22,15.4-14,23.21-28.31,27.16a85.4,85.4,0,0,1-19.37,2.9c-31.95,1.25-61-8.22-88.24-23.76-15.92-9.09-30.1-20.26-40.19-35.62C247.08,228.27,243.39,214.27,253.49,198.46Zm34.57-21.88c1.48-9.63-2-17.77-10.22-23.35-7.84-5.31-16.77-7.51-26.17-7.44-43.72.34-80.4,16.91-110.87,47-10,9.85-18.87,20.67-21.82,34.89-2.57,12.4,3,24,13.35,27.62C159.3,199.21,221.77,167.63,288.06,176.58Zm122.33,114c-6.95-26.07-52.64-58.26-92-65.12-4.31,7.23-8.17,14.75-13.05,21.56-5,7-11,13.27-16.56,19.86C321.23,291.59,381.08,306,410.39,290.62ZM286.88,183.27l.32-1.51a78.17,78.17,0,0,0-8-2.4c-18-3.45-35.55-.77-52.68,4.77-31.21,10.1-58.59,26-78.6,52.15-4.9,6.39-8.12,14-12.65,22.06,5.84,1.32,9.74,2.54,13.73,3.06,24,3.14,46.32-3.21,67.9-12.64,1.54-.67,2.84-3.58,2.9-5.49.39-12.59,3.71-24.11,12-34,10-12,23.34-18.67,38.35-22.48C275.69,185.39,281.31,184.43,286.88,183.27Zm-172.94,57c-7.17,23,5.64,48.17,30.11,58.3,32.81,13.59,64.51,6.73,94.89-5.35l-20-39.9c-8,2.73-16.94,6.44-26.21,8.7a194.63,194.63,0,0,1-29,4.6C139.27,268.81,122.29,259.73,113.94,240.32Zm206.62-19.53c39.13,11.74,74.77,28.81,95,67.08,8.63-6,13.4-14.07,11-23.84-1.95-7.93-5.34-16.17-10.35-22.6-16.59-21.31-39-35.21-64.57-44.24-9.29-3.28-19-5.5-28.11-8.1C322.46,200.42,321.54,210.3,320.56,220.79Zm-35.78-68c9.91,11.45,11,23.6,5.35,35.29-5,10.33-12.07,19.82-19.12,29-4.21,5.5-10.14,9.76-15.5,14.75,6.56,13.41,16.9,23.27,28.48,32.08,15.8-13.66,27.45-31.45,32.23-48.83C323.68,188,310.89,161.75,284.78,152.83Zm1,36.31c-22,.09-38.39,17.51-32.37,33.27C270.5,217.48,277.26,203.23,285.75,189.14Z" transform="translate(0 6.11)"/></svg>